<svg width="244" height="38" viewBox="0 0 244 38" fill="none" xmlns="http://www.w3.org/2000/svg">
<path d="M0.968323 37.628H37.5734V0.774612H0.968323V37.628ZM6.12549 5.93367H32.6623V32.4682H6.12549V5.93367ZM23.0812 9.61796L9.07428 28.7847H15.7066L29.7135 9.61796H23.0812Z" fill="#034694"/>
<path d="M55.2174 19.2395H52.1665V34.2881H55.1871C60.6633 34.2881 62.454 32.0941 62.454 26.5933C62.454 21.1209 60.3462 19.2395 55.2174 19.2395ZM56.2159 16.217C62.626 16.217 66.3625 19.1514 66.3625 26.65C66.3625 32.9819 63.5433 37.3106 56.1562 37.3106H48.5737V16.217H56.2159Z" fill="#034694"/>
<path d="M78.895 28.4748C78.8636 26.0532 77.842 24.628 75.5569 24.628C73.5065 24.628 72.1096 25.7667 71.9667 28.4748H78.895ZM71.8809 30.8956C72.0813 33.6335 73.2487 35.0587 75.5259 35.0587C78.0382 35.0587 78.635 33.8054 78.7778 32.9509H82.0324C81.6 35.3743 79.6637 37.6258 75.5259 37.6258C70.7391 37.6258 68.5761 34.259 68.5761 29.9261C68.5761 25.3684 70.8563 22.0617 75.5259 22.0617C80.5761 22.0617 82.142 25.5664 82.142 29.3029V30.8956H71.8809Z" fill="#034694"/>
<path d="M94.704 35.3169C93.8759 36.3982 92.4552 37.628 90.0034 37.628C86.4937 37.628 84.6981 35.7152 84.6981 32.0385V22.3788H88.0645V31.2962C88.0645 33.378 88.6065 34.9729 90.8844 34.9729C92.7103 34.9729 93.7897 33.6648 94.131 32.7763C94.3631 32.1243 94.3869 31.4678 94.3869 30.6707V22.3788H97.7556V37.3125H94.8185L94.704 35.3169Z" fill="#034694"/>
<path d="M109.86 37.255C109.463 37.3408 108.692 37.427 107.723 37.427C104.273 37.427 102.819 36.6843 102.819 32.4656V24.9972H99.9991V22.4597H102.819V18.1287H106.126V22.4597H109.743V24.9972H106.126V32.2388C106.126 34.3183 106.582 34.8293 108.52 34.8293C109.177 34.8293 109.714 34.7144 109.86 34.6879V37.255Z" fill="#034694"/>
<path d="M120.284 26.822C120.2 25.8831 119.489 24.5108 117.206 24.5108C115.557 24.5108 114.814 25.2531 114.814 26.3083C114.814 27.364 115.411 27.8485 116.837 28.132L119.916 28.7601C122.394 29.2692 123.621 30.8116 123.621 33.0367C123.621 35.3716 122.05 37.625 117.634 37.625C113.331 37.5967 111.617 35.6003 111.476 32.8647H114.673C114.728 33.7215 115.153 35.1468 117.579 35.1732C119.632 35.1732 120.458 34.347 120.458 33.1773C120.458 32.2078 119.856 31.7229 118.545 31.4387L115.382 30.7255C113.331 30.2716 111.708 29.1566 111.708 26.5378C111.708 23.6011 113.985 22.0609 117.323 22.0609C121.227 22.0609 123.194 23.9658 123.363 26.822H120.284Z" fill="#034694"/>
<path d="M135.183 27.4467C135.042 26.4505 134.615 24.6556 132.077 24.6556C129.885 24.6556 128.685 26.3673 128.685 29.9004C128.685 32.8662 129.627 35.0292 132.077 35.0292C134.586 35.0292 135.042 33.3791 135.128 32.2071H138.435C138.094 35.5712 135.981 37.6265 132.106 37.6265C126.717 37.6265 125.292 34.0046 125.292 29.9004C125.292 25.794 126.748 22.0621 132.077 22.0621C136.327 22.0621 138.18 24.3422 138.461 27.4467H135.183Z" fill="#034694"/>
<path d="M143.927 37.3106H140.565V16.2197H143.896V24.1695C144.784 23.2031 146.154 22.0617 148.518 22.0617C151.911 22.0617 153.62 24.0554 153.62 27.3046V37.3106H150.253V28.2193C150.253 25.7649 149.258 24.9413 147.543 24.9413C146.008 24.9413 144.924 25.7074 144.443 26.5385C144.01 27.2211 143.927 27.9615 143.927 29.0168V37.3106Z" fill="#034694"/>
<path d="M166.148 28.4748C166.124 26.0532 165.1 24.628 162.815 24.628C160.764 24.628 159.37 25.7667 159.224 28.4748H166.148ZM159.139 30.8956C159.339 33.6335 160.506 35.0587 162.791 35.0587C165.296 35.0587 165.893 33.8054 166.034 32.9509H169.29C168.858 35.3743 166.919 37.6258 162.791 37.6258C157.999 37.6258 155.829 34.259 155.829 29.9261C155.829 25.3684 158.114 22.0617 162.791 22.0617C167.834 22.0617 169.4 25.5664 169.4 29.3029V30.8956H159.139Z" fill="#034694"/>
<path d="M183.357 27.7895V34.3198H188.227C190.937 34.3198 192.188 33.4056 192.188 31.0415C192.188 28.6755 190.937 27.7895 188.227 27.7895H183.357ZM187.542 19.2089H183.357V24.7984H187.633C190.338 24.7984 191.221 23.9409 191.221 22.0046C191.221 20.181 190.369 19.2089 187.542 19.2089ZM179.763 37.3113V16.2178H187.888C192.821 16.2178 194.812 18.4401 194.812 21.6062C194.812 23.9152 193.587 25.5936 191.961 26.1379C193.9 26.4505 195.812 28.0477 195.812 31.0415C195.812 34.914 193.728 37.3113 188.54 37.3113H179.763Z" fill="#034694"/>
<path d="M207.176 31.8401V30.6707H203.807C201.899 30.6707 201.019 31.4394 201.019 32.8337C201.019 34.0296 201.616 35.0304 203.552 35.0304C205.464 35.0304 206.66 34.1467 207.028 33.0083C207.145 32.6353 207.176 32.3254 207.176 31.8401ZM198.369 26.5094C198.849 23.8853 200.617 22.0617 204.521 22.0617C208.568 22.0617 210.423 23.6559 210.423 27.3065V37.3106H207.57L207.462 35.2545C206.631 36.3434 205.094 37.625 202.73 37.625C199.731 37.625 197.738 35.911 197.738 32.9195C197.738 30.069 199.787 28.3614 203.807 28.3614H207.176V27.0488C207.176 25.1983 206.206 24.5444 204.435 24.5444C202.413 24.5444 201.813 25.54 201.702 26.5094H198.369Z" fill="#034694"/>
<path d="M216.827 24.0845C217.715 23.1154 219.138 22.0621 221.506 22.0621C224.897 22.0621 226.606 24.1703 226.606 27.305V37.3113H223.244V28.1932C223.244 25.7392 222.246 24.939 220.534 24.939C218.995 24.939 217.939 25.7108 217.428 26.5389C217.003 27.2219 216.915 28.0212 216.915 29.0742V37.3113H213.549V22.4041H216.688L216.827 24.0845Z" fill="#034694"/>
<path d="M233.207 28.9612L239.052 22.3761H242.927L237.084 28.8754L243.641 37.3098H239.591L233.207 28.9612ZM233.095 37.3098H229.727V16.2189H233.095V37.3098Z" fill="#034694"/>
</svg>
