<svg width="96" height="38" viewBox="0 0 96 38" fill="none" xmlns="http://www.w3.org/2000/svg">
<path fill-rule="evenodd" clip-rule="evenodd" d="M48.3628 3.81562C47.473 3.31332 45.8909 4.79225 45.1528 5.36636C42.6179 7.43528 40.6064 9.66936 37.8901 11.5837C36.0275 12.8971 34.4072 14.7033 32.6161 16.1822C31.6395 16.9884 25.4471 22.5054 24.8964 22.5039C23.7981 22.5012 33.804 10.9019 34.9946 9.29367C39.9639 2.57783 36.046 2.70368 31.1481 6.30595C28.6703 8.12844 25.8232 10.6804 23.4772 12.7531C17.8911 17.6891 12.585 23.0205 7.42895 28.4022C6.30001 29.5814 0.893785 35.205 0.941785 36.6057C0.987517 37.9293 2.64143 38.0313 3.60975 37.0233C4.64194 35.9492 5.80829 34.0159 6.93459 32.7169C12.7887 25.9833 19.7634 19.0932 26.3893 13.1049C27.9809 11.6665 29.571 10.3334 31.4437 9.26985C27.4869 14.4693 23.2848 19.4697 19.6644 24.9175C19.0794 25.8026 17.8514 28.0772 19.6255 28.5005C22.8929 28.7798 32.6392 19.3272 35.4198 16.8905C38.1482 14.5166 41.281 11.5527 44.251 9.59376C45.4136 8.82689 49.9158 5.75376 48.8027 4.19055L48.6039 3.97927L48.3628 3.81562Z" fill="#010B92"/>
<path fill-rule="evenodd" clip-rule="evenodd" d="M70.9493 12.5032C73.3024 10.7473 76.3354 9.18028 76.459 8.02677C77.0653 2.38809 66.6115 13.1923 65.803 14.012C64.9111 14.9157 64.3192 15.5435 63.4235 16.4226C62.4548 17.3732 61.5352 17.7262 62.3112 19.4836C63.5565 20.9743 66.1995 17.9072 67.3636 17.5859L67.4634 20.7214C70.2931 21.6973 71.3053 19.6927 72.6935 19.7698C73.5983 19.82 74.2435 21.3428 77.6692 19.3136C79.2234 22.0167 82.3929 19.8563 84.1198 18.7776C86.0915 19.3744 85.3602 20.3987 88.3154 18.8922C89.5483 18.2636 90.5544 17.5723 91.4679 17.0183C92.2166 18.2171 92.1868 19.5275 94.0301 19.597C95.5664 19.6549 93.3354 19.6836 94.6911 19.5086L95.3465 19.2913C95.9055 17.7662 94.9757 17.7405 93.9602 16.9121C93.953 15.1009 95.0547 12.7757 93.0553 12.894C92.4434 12.9303 90.771 14.356 89.8624 14.7755C92.2012 10.6562 94.8 12.5958 93.2504 8.9452C89.4515 8.70255 86.3304 15.7808 81.8422 16.926C82.4352 15.4592 83.3786 15.1172 82.1839 13.3385C80.5058 13.1839 80.3247 14.1054 79.3436 15.0956C79.3012 15.0128 79.2774 14.8885 79.2589 14.8299L78.6054 12.9269C75.9499 12.9534 73.858 16.5764 71.1806 17.3743C71.732 15.9162 72.288 16.4226 72.1118 14.7199C71.9244 12.9122 71.427 14.0827 70.9493 12.5032Z" fill="#010B92"/>
<path fill-rule="evenodd" clip-rule="evenodd" d="M50.6864 22.163C52.8313 22.1671 54.0079 22.4011 55.13 20.969C57.6661 17.733 52.8472 15.1043 59.3812 8.70633C60.599 7.51427 64.2579 5.07647 66.1258 4.48573C71.6004 2.75433 73.0385 3.08881 72.1466 0.143807C68.7968 -0.639689 57.8732 4.71968 54.5203 10.8591C53.8892 12.0153 53.7036 13.2017 53.6851 14.6946C53.6443 17.9737 54.164 17.9866 53.0671 18.9972C50.8198 21.0692 39.0629 18.1997 37.8942 18.4288C37.6822 21.5563 39.9091 22.2616 42.7985 21.9517C44.4751 21.7718 48.3975 22.158 50.6864 22.163Z" fill="#010B92"/>
</svg>
