<svg width="93" height="92" viewBox="0 0 93 92" fill="none" xmlns="http://www.w3.org/2000/svg">
<path fill-rule="evenodd" clip-rule="evenodd" d="M44.0703 0.110485C37.252 0.357288 31.2211 2.36044 25.864 4.95357C23.0902 6.29644 21.0526 7.71263 18.7777 9.35975C16.5194 10.9951 15.4071 12.16 13.5295 14.0532C11.5558 16.0427 11.9844 15.5393 10.112 17.9351C7.51172 21.2622 5.46434 24.7659 3.79417 28.8576C-8.48136 58.9294 14.2668 93.5313 48.9036 91.9224C73.4777 90.781 93.5802 69.5468 92.3311 43.535C91.8609 33.7434 88.4098 25.7379 83.0932 18.3698C81.0432 15.5287 77.3827 11.8334 74.5382 9.68516C73.5147 8.91262 72.3536 8.04258 71.1699 7.30784C62.8625 2.15105 54.3956 -0.262933 44.0703 0.110485Z" fill="#8C7B6B"/>
<path fill-rule="evenodd" clip-rule="evenodd" d="M4.85618 59.6426L88.0069 59.6766C89.4235 55.606 90.193 50.5887 90.196 46.0227C90.1983 42.5837 89.3721 35.149 87.9812 32.4402L4.88416 32.4285C3.5001 35.101 2.66974 42.6362 2.66974 46.0223C2.66974 50.5638 3.44226 55.6393 4.85618 59.6426Z" fill="#FEFEFE"/>
<path fill-rule="evenodd" clip-rule="evenodd" d="M24.7444 30.2311L45.4116 30.2246L45.4101 17.1331L30.1578 17.1376C28.1222 20.3669 25.4489 25.6888 24.7444 30.2311Z" fill="#FEFEFE"/>
<path fill-rule="evenodd" clip-rule="evenodd" d="M47.4579 30.2261L68.1285 30.222C67.76 27.8602 66.73 25.1941 65.8944 23.1422L63.5345 18.5138C63.2279 17.9945 62.9668 17.3674 62.4278 17.1354L47.4802 17.1358L47.4579 30.2261Z" fill="#FEFEFE"/>
<path fill-rule="evenodd" clip-rule="evenodd" d="M47.4564 74.8317L62.7786 74.8268C63.0817 74.0316 63.9064 72.8002 64.4038 71.9151C65.662 69.6757 67.9837 64.0314 68.1051 61.7791L47.5199 61.7516L47.4564 74.8317Z" fill="#FEFEFE"/>
<path fill-rule="evenodd" clip-rule="evenodd" d="M30.0933 74.7992L45.3448 74.8268L45.4026 61.8139L24.7667 61.7527C24.9198 64.1017 27.1615 69.5695 28.4121 71.8078C28.9091 72.6971 29.7792 73.9965 30.0933 74.7992Z" fill="#FEFEFE"/>
<path fill-rule="evenodd" clip-rule="evenodd" d="M5.67145 30.2292C10.9386 30.1917 17.4563 30.3645 22.4926 30.1967C23.787 22.8326 26.8368 19.1805 27.53 17.1312L13.8185 17.1358C13.2773 17.3262 12.8291 18.0202 12.4919 18.4514C9.97856 21.6655 6.83857 26.2225 5.67145 30.2292Z" fill="#FEFEFE"/>
<path fill-rule="evenodd" clip-rule="evenodd" d="M70.5035 30.2016L87.1992 30.225C86.6168 28.1402 84.7104 24.6839 83.685 23.0556C83.2644 22.3878 79.8749 17.2624 79.0449 17.1342L65.3384 17.1354C65.8555 18.5909 67.7603 21.0986 69.4747 26.5547C69.7733 27.5056 70.03 29.4559 70.5035 30.2016Z" fill="#FEFEFE"/>
<path fill-rule="evenodd" clip-rule="evenodd" d="M65.3464 74.8306L79.4293 74.8276C79.9509 73.9008 80.903 72.9246 81.6426 71.9155C83.1098 69.9142 86.9124 63.8908 87.1463 61.75L70.4253 61.7538C69.0125 66.2568 69.1739 67.2587 66.927 71.7975C66.4141 72.8339 65.7701 73.8203 65.3464 74.8306Z" fill="#FEFEFE"/>
<path fill-rule="evenodd" clip-rule="evenodd" d="M13.4422 74.811L27.527 74.8291C26.9075 73.3162 25.6039 71.3739 24.5411 68.687C24.0997 67.5709 23.7527 66.5085 23.3861 65.3463C23.0108 64.1557 22.815 62.9429 22.4461 61.7795L5.72247 61.7516C5.98402 63.8995 9.67436 69.7982 11.1646 71.8164C11.5535 72.3429 11.9337 72.7984 12.3094 73.3116C12.7161 73.8668 13.144 74.2644 13.4422 74.811Z" fill="#FEFEFE"/>
<path fill-rule="evenodd" clip-rule="evenodd" d="M25.1931 55.4681L26.8636 55.4953C27.889 54.2201 32.6784 44.2365 33.5303 43.5316L34.6801 55.4454L36.8144 55.5032L41.713 45.8069C42.3574 44.5642 45.3913 38.5052 46.1415 37.4995C46.4926 37.0289 46.7897 37.0561 46.9065 36.4363L43.3976 36.4431C43.5578 38.3827 43.5189 38.3132 42.6745 39.9373C42.1548 40.9373 41.7021 41.9041 41.1654 42.931L38.0654 49.0119C37.6765 48.4676 37.3893 43.5724 37.325 42.9019C37.1383 40.9589 37.04 38.5188 36.7002 36.6525L35.2519 36.5965C34.1517 38.1303 28.9552 48.5466 28.3297 48.9412C28.1717 46.8232 27.9091 44.6666 27.7038 42.5602C27.6014 41.5061 27.4461 40.3968 27.3984 39.3442C27.2953 37.061 27.9733 37.2005 28.0652 36.4503L22.7254 36.4416C22.7692 36.8377 23.3116 37.4571 23.6393 40.7151C23.8037 42.3471 23.9829 43.9844 24.15 45.6243C24.4814 48.8724 24.7543 52.2676 25.1931 55.4681Z" fill="#8C7B6B"/>
<path fill-rule="evenodd" clip-rule="evenodd" d="M51.3859 89.488C56.3129 89.0934 62.0416 87.0718 65.9485 85.1075C70.9677 82.5836 72.1019 81.3469 75.8074 78.3501C76.0715 78.1366 76.2276 78.0171 76.4858 77.7907C76.6041 77.6864 76.7228 77.5855 76.8089 77.4789C77.1041 77.1146 76.8902 77.4578 77.0977 77.0235L63.7631 77.0258C63.2782 78.2337 60.7157 81.0464 59.6975 82.2736L56.5646 85.3524C56.1889 85.6578 56.1644 85.7187 55.7604 86.0993C55.4482 86.3929 55.2067 86.5218 54.8968 86.7913L51.3859 89.488Z" fill="#FEFEFE"/>
<path fill-rule="evenodd" clip-rule="evenodd" d="M63.8445 14.9232L77.1231 14.9164C76.2198 13.7689 73.37 11.4869 72.091 10.5786C66.4705 6.58785 58.8683 3.07137 51.5591 2.5668L54.9463 5.20567C58.0927 7.74778 61.4819 11.5167 63.8445 14.9232Z" fill="#FEFEFE"/>
<path fill-rule="evenodd" clip-rule="evenodd" d="M41.2349 89.3958L40.3958 88.7053C40.002 88.429 39.869 88.3031 39.5201 88.0325C38.9328 87.5767 38.4331 87.1507 37.819 86.6299L34.6048 83.7847C33.4317 82.6195 29.7141 78.4087 29.1094 77.0314L15.7726 77.025C15.9733 77.4283 15.7805 77.1025 15.9869 77.3735L18.2074 79.3717C21.3655 81.8099 22.4019 82.8379 26.6863 85.0247C30.6526 87.0487 36.1831 88.9146 41.2349 89.3958Z" fill="#FEFEFE"/>
<path fill-rule="evenodd" clip-rule="evenodd" d="M15.7503 14.8986L29.0281 14.9342C30.8544 12.3316 32.5756 10.2767 34.5943 8.2497C37.3889 5.44378 38.1712 5.0114 40.9189 2.93115L41.4027 2.48479C32.9176 3.18589 21.3251 8.67944 15.7503 14.8986Z" fill="#FEFEFE"/>
<path fill-rule="evenodd" clip-rule="evenodd" d="M7.45125 50.6919L6.43683 54.3146C9.49371 55.8472 13.3575 56.6541 16.5603 54.8214C19.7857 52.9759 20.4929 48.7901 18.3333 46.4796C15.6729 43.6333 11.8407 43.1347 12.4424 39.8386C12.7524 38.1393 14.172 37.2402 16.1536 37.298C19.0631 37.3827 18.9282 39.2403 19.5646 40.2604C19.983 39.8912 20.4679 37.5229 20.5556 37.0149C18.4462 35.6271 13.3556 35.6052 10.7598 37.8362C9.78809 38.6719 8.83493 40.299 9.00728 42.2953C9.31833 45.9032 13.6719 47.1157 14.9831 48.8936C17.4432 52.2302 14.2805 55.5879 10.2194 54.2813C9.31872 53.9918 8.79142 53.5549 8.42027 52.974C7.62241 51.7245 7.97018 51.0702 7.45125 50.6919Z" fill="#8C7B6B"/>
<path fill-rule="evenodd" clip-rule="evenodd" d="M54.543 55.4692L60.117 55.4908C59.6937 53.3655 60.1019 52.7574 60.6745 50.7879C60.9708 49.7693 61.5215 47.3977 61.9618 46.5367C62.8693 46.4388 64.2288 46.4354 65.1155 46.562C67.0101 46.833 66.3646 47.3992 67.2755 47.8852L68.2601 44.3816C67.1814 44.9504 67.2298 45.1247 65.6964 45.1745C64.7145 45.2063 63.3478 45.2195 62.3859 45.1311C62.4113 44.6843 64.0274 38.7966 64.2451 38.3619C64.671 37.5119 66.8189 37.6472 67.983 37.8392C69.965 38.1654 69.9283 39.342 70.5036 39.76C70.8842 39.2263 71.532 37.1495 71.6004 36.4355L60.018 36.445C60.074 37.5471 60.4474 37.3536 60.0448 38.9757L57.9174 46.347C57.6109 47.42 55.918 53.8123 55.3582 54.6408C54.9557 55.2364 54.7883 54.9526 54.543 55.4692Z" fill="#8C7B6B"/>
<path fill-rule="evenodd" clip-rule="evenodd" d="M31.811 14.9387L45.3708 14.938C45.5564 12.1339 45.3984 5.77979 45.4154 2.47913C44.0113 3.10993 40.9605 5.42489 39.6747 6.49904L36.2724 9.61715C35.3377 10.562 32.1969 14.0086 31.811 14.9387Z" fill="#FEFEFE"/>
<path fill-rule="evenodd" clip-rule="evenodd" d="M47.4605 89.4857C51.5054 87.5982 57.3391 81.8632 60.3347 78.0961L61.0702 77.0239L47.4575 77.025L47.4605 89.4857Z" fill="#FEFEFE"/>
<path fill-rule="evenodd" clip-rule="evenodd" d="M47.4616 14.9376L61.0619 14.9338C60.7312 14.1204 57.5462 10.5722 56.6784 9.68478L53.2572 6.58407C52.6778 6.05834 52.1116 5.63956 51.451 5.12932C50.4573 4.36208 48.6616 3.01052 47.4533 2.47647L47.4616 14.9376Z" fill="#FEFEFE"/>
<path fill-rule="evenodd" clip-rule="evenodd" d="M45.3781 89.4823L45.4132 77.0239L31.8043 77.0254C32.4562 78.4238 35.1677 81.1292 36.2792 82.2653C38.2918 84.3214 38.8905 84.8789 41.4636 86.8654C42.1303 87.3802 44.6222 89.1936 45.3781 89.4823Z" fill="#FEFEFE"/>
<path fill-rule="evenodd" clip-rule="evenodd" d="M71.7681 39.7506C72.721 39.418 73.1711 37.3249 77.2946 37.8056L72.6568 53.7609C72.0452 55.3067 71.744 54.8316 71.5051 55.4337L76.9616 55.487C76.5319 53.5141 76.9011 52.9419 77.4624 50.9569C78.6318 46.8239 80.268 41.6562 81.237 37.7984C85.2093 37.4197 84.9871 39.2456 85.9062 39.7876L87.0035 36.454L72.9043 36.4442L71.7681 39.7506Z" fill="#8C7B6B"/>
<path fill-rule="evenodd" clip-rule="evenodd" d="M44.269 55.4779L49.8318 55.4866C49.6379 54.1063 49.4667 54.27 49.8582 52.7075C50.3673 50.6753 53.8381 38.1684 54.5509 37.2118C54.9194 36.7175 55.0849 36.9148 55.2221 36.4609L49.7165 36.442C49.9134 38.9894 49.9747 38.3181 49.0064 41.5889C48.5271 43.2077 48.0411 44.7845 47.5932 46.4131L45.4733 53.6029C45.0235 54.8456 44.4675 54.9189 44.269 55.4779Z" fill="#8C7B6B"/>
</svg>
